<?xml version="1.0" encoding="utf-8"?>
<!-- Generator: Adobe Illustrator 25.0.0, SVG Export Plug-In . SVG Version: 6.00 Build 0)  -->
<svg version="1.1" xmlns="http://www.w3.org/2000/svg" xmlns:xlink="http://www.w3.org/1999/xlink" x="0px" y="0px"
	 viewBox="0 0 70 80" style="enable-background:new 0 0 70 80;" xml:space="preserve">
<style type="text/css">
	.st0{fill:#FFFFFF;stroke:#FFFFFF;stroke-miterlimit:10;}
	.st1{fill:none;stroke:#000000;stroke-width:4;stroke-miterlimit:10;}
	.st2{fill:#F7282E;}
	.st3{fill:none;stroke:#F7282E;stroke-width:2;stroke-miterlimit:10;}
</style>
<g id="Белая_заливка">
	<polygon class="st0" points="35.78,6.5 63.5,21.5 8.5,22.29 	"/>
	<polygon class="st0" points="36.29,73.74 7.5,56.44 64.5,55.5 	"/>
	<rect x="7.5" y="22.5" class="st0" width="57" height="33"/>
</g>
<g id="Внешний_Контур">
	<polygon class="st1" points="35.5,74.01 65.5,57.5 65.5,22.9 35.5,5.43 5.5,22.5 5.5,56.8 	"/>
	<line class="st1" x1="35.5" y1="58.63" x2="35.5" y2="74.01"/>
	<line class="st1" x1="21.5" y1="31.5" x2="6.5" y2="22.5"/>
	<line class="st1" x1="49.62" y1="32.5" x2="64.5" y2="23.9"/>
</g>
<g id="TOP_SHOP">
	<g>
		<path d="M30.6,26.28h-1.64v-0.59h3.99v0.59h-1.65v4.8h-0.7V26.28z"/>
		<path d="M37.95,28.32c0,1.85-1.13,2.84-2.5,2.84c-1.42,0-2.42-1.1-2.42-2.73c0-1.71,1.06-2.83,2.5-2.83
			C36.99,25.6,37.95,26.72,37.95,28.32z M33.76,28.41c0,1.15,0.62,2.18,1.72,2.18c1.1,0,1.73-1.02,1.73-2.24
			c0-1.07-0.56-2.19-1.72-2.19C34.34,26.17,33.76,27.23,33.76,28.41z"/>
		<path d="M38.85,25.75c0.34-0.06,0.78-0.1,1.34-0.1c0.69,0,1.19,0.16,1.51,0.45c0.3,0.26,0.47,0.65,0.47,1.13
			c0,0.49-0.14,0.87-0.42,1.15c-0.37,0.39-0.97,0.59-1.65,0.59c-0.21,0-0.4-0.01-0.56-0.05v2.16h-0.7V25.75z M39.55,28.35
			c0.15,0.04,0.34,0.06,0.58,0.06c0.84,0,1.35-0.41,1.35-1.15c0-0.71-0.5-1.06-1.27-1.06c-0.3,0-0.54,0.02-0.66,0.06V28.35z"/>
	</g>
	<g>
		<path d="M25.4,53.74c0.39,0.24,0.96,0.44,1.56,0.44c0.89,0,1.41-0.47,1.41-1.15c0-0.63-0.36-0.99-1.27-1.34
			c-1.1-0.39-1.78-0.96-1.78-1.91c0-1.05,0.87-1.83,2.18-1.83c0.69,0,1.19,0.16,1.49,0.33L28.74,49c-0.22-0.12-0.67-0.32-1.28-0.32
			c-0.92,0-1.27,0.55-1.27,1.01c0,0.63,0.41,0.94,1.34,1.3c1.14,0.44,1.72,0.99,1.72,1.98c0,1.04-0.77,1.94-2.36,1.94
			c-0.65,0-1.36-0.19-1.72-0.43L25.4,53.74z"/>
		<path d="M31.32,48.07v2.82h3.26v-2.82h0.88v6.74h-0.88v-3.16h-3.26v3.16h-0.87v-6.74H31.32z"/>
		<path d="M42.72,51.36c0,2.32-1.41,3.55-3.13,3.55c-1.78,0-3.03-1.38-3.03-3.42c0-2.14,1.33-3.54,3.13-3.54
			C41.53,47.96,42.72,49.37,42.72,51.36z M37.5,51.47c0,1.44,0.78,2.73,2.15,2.73c1.38,0,2.16-1.27,2.16-2.8
			c0-1.34-0.7-2.74-2.15-2.74C38.21,48.67,37.5,50,37.5,51.47z"/>
		<path d="M43.86,48.15c0.42-0.07,0.97-0.13,1.67-0.13c0.86,0,1.49,0.2,1.89,0.56C47.78,48.9,48,49.39,48,49.99
			c0,0.61-0.18,1.09-0.52,1.44c-0.46,0.49-1.21,0.74-2.06,0.74c-0.26,0-0.5-0.01-0.7-0.06v2.7h-0.87V48.15z M44.72,51.39
			c0.19,0.05,0.43,0.07,0.72,0.07c1.05,0,1.69-0.51,1.69-1.44c0-0.89-0.63-1.32-1.59-1.32c-0.38,0-0.67,0.03-0.82,0.07V51.39z"/>
	</g>
</g>
<g id="_x33_D">
	<g>
		<path class="st2" d="M27.65,42.1c0.18,0.26,0.4,0.53,0.66,0.82c0.26,0.29,0.57,0.54,0.93,0.74s0.77,0.3,1.23,0.3
			c0.42,0,0.83-0.07,1.24-0.22s0.74-0.38,1.01-0.7c0.27-0.32,0.4-0.74,0.4-1.25c0-0.46-0.11-0.83-0.34-1.11s-0.51-0.47-0.85-0.6
			c-0.34-0.12-0.69-0.19-1.04-0.19c-0.33,0-0.64,0.03-0.91,0.1c-0.27,0.06-0.52,0.14-0.74,0.23l-0.55-1.15l3.4-3.44h-5.15v-1.62
			h7.28l0.31,0.95l-3.23,3.33c0.61,0,1.17,0.15,1.7,0.44c0.53,0.3,0.95,0.7,1.27,1.21s0.48,1.08,0.48,1.71
			c0,0.78-0.2,1.45-0.59,2.03c-0.39,0.58-0.91,1.02-1.57,1.33c-0.65,0.31-1.37,0.47-2.15,0.47c-0.67,0-1.26-0.11-1.76-0.32
			c-0.51-0.21-0.95-0.5-1.34-0.87c-0.39-0.37-0.73-0.77-1.02-1.21L27.65,42.1z"/>
		<path class="st2" d="M37.21,33.95c0.88-0.14,1.92-0.24,3.07-0.24c2.07,0,3.55,0.5,4.53,1.44c1,0.94,1.58,2.28,1.58,4.14
			c0,1.88-0.56,3.42-1.61,4.49c-1.04,1.08-2.77,1.66-4.94,1.66c-1.03,0-1.89-0.05-2.62-0.14V33.95z M38.66,44.15
			c0.37,0.07,0.9,0.09,1.46,0.09c3.08,0,4.76-1.78,4.76-4.9c0.02-2.72-1.48-4.45-4.53-4.45c-0.75,0-1.31,0.07-1.69,0.15V44.15z"/>
	</g>
	<path class="st3" d="M29.5,39.5"/>
</g>
</svg>
