<?xml version="1.0" encoding="utf-8"?>
<!-- Generator: Adobe Illustrator 25.0.0, SVG Export Plug-In . SVG Version: 6.00 Build 0)  -->
<svg version="1.1" xmlns="http://www.w3.org/2000/svg" xmlns:xlink="http://www.w3.org/1999/xlink" x="0px" y="0px"
	 viewBox="0 0 120 72" style="enable-background:new 0 0 120 72;" xml:space="preserve">
<style type="text/css">
	.st0{fill:#FF0000;stroke:#000000;stroke-width:0.25;stroke-miterlimit:10;}
	.st1{font-family:'YandexSansDisplay-Regular';}
	.st2{font-size:27.2866px;}
	.st3{stroke:#000000;stroke-width:0.25;stroke-miterlimit:10;}
	.st4{fill:#F48F18;}
	.st5{font-size:14.2919px;}
	.st6{fill:none;stroke:#F48F18;stroke-miterlimit:10;}
	.st7{fill:#FFFFFF;}
	.st8{fill:#F48F18;stroke:#F48F18;stroke-miterlimit:10;}
	.st9{font-family:'YandexSansDisplay-Bold';}
	.st10{font-size:8px;}
	.st11{font-size:8.543px;}
	.st12{fill:#E2F0F9;}
	.st13{fill:#8083AA;}
	.st14{fill:#585C6A;}
	.st15{fill:#3A403D;}
	.st16{fill:#FF7D2D;}
	.st17{fill:#5998D8;}
	.st18{fill:#384C57;}
	.st19{fill:#F6812B;}
	.st20{fill:none;stroke:#000000;stroke-width:1.000000e-02;stroke-miterlimit:10;}
	.st21{fill:#E1EDF4;}
</style>
<g id="Яндекс">
	<text transform="matrix(0.6683 0 0 1 30.4321 19.1705)"><tspan x="0" y="0" class="st0 st1 st2">Я</tspan><tspan x="16.6" y="0" class="st3 st1 st2">ндекс</tspan></text>
</g>
<g id="маркет">
	<text transform="matrix(0.916 0 0 1 39.2026 31.3937)" class="st4 st1 st5">маркет</text>
</g>
<g id="желт_прям">
	<g>
		<path class="st6" d="M118.9,52.1c0,2.2-1.8,4-4,4H5.5c-2.2,0-4-1.8-4-4V39.5c0-2.2,1.8-4,4-4h109.4c2.2,0,4,1.8,4,4V52.1z"/>
	</g>
</g>
<g id="белая_закрашенная_часть">
	<g>
		<g>
			<path class="st7" d="M114.2,67.1c1.9,0,1.9-3,0-3C112.3,64.1,112.3,67.1,114.2,67.1L114.2,67.1z"/>
		</g>
	</g>
	<g>
		<g>
			<path class="st7" d="M106.2,53.6c-0.4-1.1-0.9-2.2-1.6-3.2c-0.2-0.3-0.5-0.6-0.9-0.7c-0.4-0.1-0.8-0.1-1.2,0.2
				c-0.3,0.2-0.6,0.5-0.7,0.9c-0.1,0.4-0.1,0.8,0.2,1.2c0.5,0.7,0.9,1.4,1.2,2.2c-0.1-0.1-0.1-0.2-0.2-0.4c0.1,0.2,0.2,0.4,0.2,0.6
				c0.1,0.4,0.3,0.7,0.7,0.9c0.3,0.2,0.8,0.3,1.2,0.2c0.4-0.1,0.7-0.3,0.9-0.7C106.2,54.4,106.3,54,106.2,53.6L106.2,53.6z"/>
		</g>
	</g>
	<g>
		<g>
			<path class="st7" d="M105.6,54.1c0.1-1.1,0.1-2.2-0.1-3.3c-0.1-0.2-0.1-0.4-0.2-0.6c-0.1-0.2-0.2-0.4-0.3-0.6
				c-0.1-0.2,0.1,0.2,0-0.1c-0.1-0.2-0.2-0.5-0.2-0.7c0,0.2,0-0.1,0-0.2c0,0,0-0.4,0-0.2c-1,0-1.9,0-2.9,0c0.4,1.5,0.4,3.1,0.8,4.6
				c0.2,0.7,0.5,1.4,0.8,2.1c0,0.1,0.1,0.6,0.1,0.3c0,0.1,0,0.3,0,0.4c0-0.3,0,0.1,0,0.1c0.1-0.1,0.1-0.1,0,0c0.1-0.1,0.1-0.1,0,0
				c0.2-0.1,0.4-0.3,0.7-0.4c0,0-0.1,0-0.1,0c0.3,0,0.5,0,0.8,0c0,0-0.1,0-0.1,0c0.3,0.2,0.6,0.5,0.9,0.7c0.1,0.2,0.1,0.2,0,0
				c0,0.1,0,0.1,0-0.1c0-0.2,0-0.3,0-0.5c0-0.4,0-0.5,0.2-1c-0.9,0.1-1.8,0.2-2.7,0.4c0-0.1,0-0.1,0,0.1c0,0.1,0.1,0.2,0.1,0.3
				c0.1,0.2,0.1,0.4,0.2,0.6c0-0.2,0,0.4,0,0.4c0,0.2,0,0.4,0,0.7c1-0.1,2-0.3,2.9-0.4c-0.1-0.6-0.2-1.1-0.3-1.5
				c-0.1-0.8-0.5-1.4-1.3-1.5c-0.8-0.1-1.4,0.4-1.6,1.1c-0.2,0.6-0.4,1.3-0.5,2c-0.1,0.8,0.2,1.7,1,1.8c0.8,0.2,1.6-0.2,1.8-1
				c0.2-0.7,0.4-1.4,0.5-2.2c-1,0-1.9,0-2.9,0c0,0,0,0.3,0,0.1c0,0.1,0,0.3,0,0.4c0,0.3,0,0.5,0,0.8c0.9-0.3,1.9-0.5,2.8-0.8
				c-0.1-0.2-0.2-0.4-0.2-0.5c-0.1-0.2-0.2-0.5-0.2-0.7c-0.4-1.6-3-1.3-2.9,0.4c0,0.8,0,1.6-0.1,2.4c1-0.1,2-0.3,2.9-0.4
				c-0.1-0.4-0.2-0.8-0.3-1.2c0-0.2-0.1-0.3-0.1-0.5c0-0.1,0-0.2-0.1-0.3c0,0.1,0,0.1,0-0.1c-0.5,0.5-1,1-1.5,1.5
				c-0.4,0-0.7-0.2-0.8-0.5c0-0.1,0-0.1,0,0.1c0,0.1,0.1,0.2,0.1,0.3c0.1,0.4,0.3,0.7,0.6,1c0.9,0.8,2.1,0.4,2.5-0.7
				c0.4-1,0.4-2.1,0.1-3.2c-0.5,0.6-1,1.3-1.4,1.9c-0.1,0-0.3-0.1,0,0c0.7,0.4,1.7,0.1,2.1-0.5c0.4-0.8,0.2-1.6-0.5-2.1
				c-0.5-0.3-0.9-0.4-1.5-0.5c-1-0.1-1.7,1-1.4,1.9c0,0,0.1,0.5,0.1,0.2c0,0.2,0,0.4,0,0.6c0,0.1,0,0.1,0,0c0,0.1,0,0.2,0,0.2
				c0,0.2-0.1,0.4-0.2,0.5c0.8-0.2,1.7-0.4,2.5-0.7c0,0,0.1,0.2,0.1,0.2c0,0-0.1-0.2-0.1-0.3c-0.1-0.3-0.2-0.5-0.3-0.8
				c-0.4-0.6-1-1-1.7-1c-0.7,0-1.6,0.7-1.5,1.5c0.1,1,0.3,2,0.6,2.9c0.2,0.7,0.9,1.2,1.6,1.1c0.8-0.1,1.2-0.7,1.3-1.5
				c0.1-0.8,0.1-1.6,0.1-2.4c-1,0.1-2,0.3-2.9,0.4c0.2,0.7,0.4,1.3,0.7,1.9c0.3,0.6,1.1,0.9,1.7,0.7c0.7-0.2,1-0.8,1.1-1.4
				c0.1-0.7,0-1.4-0.1-2.1c-0.3-1.5-2.5-1.4-2.9,0c-0.2,0.7-0.4,1.4-0.5,2.2c1,0.3,1.9,0.5,2.9,0.8c0.1-0.7,0.3-1.3,0.5-2
				c-1-0.1-2-0.3-2.9-0.4c0.1,0.8,0.2,1.5,0.4,2.3c0.2,0.7,0.9,1.2,1.6,1.1c0.8-0.1,1.2-0.7,1.3-1.5c0.1-1.3-0.2-2.5-0.7-3.7
				c-0.2-0.5-1-0.8-1.5-0.7c-0.6,0.1-1.1,0.5-1.2,1.1c-0.2,0.7-0.3,1.5-0.3,2.2c0,0.9,0.2,2,1.1,2.4c1.9,0.8,3-1.5,2.8-3
				c-0.1-1.3-0.8-2.5-1.1-3.8c-0.3-1.3-0.4-2.7-0.7-4c-0.2-0.6-0.8-1.1-1.4-1.1c-0.6,0-1.3,0.4-1.4,1.1c-0.1,0.7-0.1,1.3,0,2.1
				c0,0.2,0.1,0.5,0.2,0.7c0.1,0.2,0.2,0.4,0.2,0.6c0,0,0.1,0.3,0.1,0.2c0.4,0.9,0.3,1.9,0.2,3c-0.1,0.8,0.7,1.5,1.5,1.5
				C105,55.6,105.6,54.9,105.6,54.1L105.6,54.1z"/>
		</g>
	</g>
	<g>
		<g>
			<path class="st7" d="M110.5,53.9c0.3-0.6,0.6-1.3,0.7-2.1c0.1-0.3,0.1-0.6-0.1-1c-0.1-0.3-0.3-0.6-0.6-0.7
				c-0.6-0.3-1.4-0.3-1.8,0.2c-1.3,1.4-2.5,3.1-3.3,4.9c-0.3,0.6-0.3,1.2,0.1,1.7c0.2,0.2,0.4,0.4,0.6,0.5c0.3,0.1,0.6,0.1,1,0.1
				c0.6-0.1,1.2-0.5,1.5-1c0.3-0.4,0.7-0.8,1-1.3c0.7-0.9,1.4-1.9,2.1-2.8c0.2-0.3,0.3-0.8,0.2-1.2c-0.1-0.3-0.3-0.6-0.5-0.8
				c-0.6-0.5-1.4-0.4-2,0.1c-1.4,1.3-2.8,2.8-3.2,4.8c-0.1,0.6,0,1.2,0.5,1.6c0.5,0.4,1.1,0.4,1.7,0.1c1.1-0.6,2-1.3,2.9-2.1
				c0.5-0.5,0.6-1.4,0.1-2c-0.5-0.6-1.2-0.7-1.9-0.4c-1.2,0.6-2.2,1.6-2.8,2.8c-0.3,0.7-0.2,1.7,0.5,2.1c0.3,0.2,0.8,0.3,1.2,0.2
				c0.4-0.1,0.6-0.4,0.9-0.7c0.3-0.4,0.6-0.9,1-1.3c-0.9-0.4-1.8-0.8-2.7-1.2c0,0.1,0,0.1-0.1,0.2c0.1-0.1,0.1-0.2,0.2-0.4
				c0,0.1-0.1,0.1-0.1,0.2c0.1-0.1,0.2-0.2,0.2-0.3c0,0-0.1,0.1-0.1,0.1c0.7,0.7,1.4,1.4,2.1,2.1c0.2-0.3,0.5-0.5,0.7-0.8
				c0.4-0.4,0.6-0.9,0.4-1.5c0-0.1,0-0.1-0.1-0.2c0,0.1,0,0.3,0.1,0.4c0-0.1,0-0.2,0-0.3c0,0.1,0,0.3-0.1,0.4
				c0.1-0.4,0.3-0.8,0.4-1.3c0.1-0.4,0.1-0.8,0-1.2c-0.1-0.4-0.3-0.7-0.6-1.1c-0.2-0.3-0.7-0.4-1.1-0.4c-0.4,0-0.8,0.2-1.1,0.4
				c-0.3,0.3-0.5,0.7-0.4,1.1c0,0.4,0.2,0.7,0.4,1.1c0,0,0,0,0,0c-0.1-0.1-0.2-0.2-0.2-0.3c0,0.1,0.1,0.1,0.1,0.2
				c-0.1-0.1-0.1-0.2-0.2-0.4c0,0.1,0,0.1,0,0.2c0-0.1,0-0.3-0.1-0.4c0,0.1,0,0.3,0,0.4c0-0.1,0-0.3,0.1-0.4c-0.1,0.3-0.2,0.6-0.3,1
				c-0.2,0.5-0.2,1.2,0,1.7c0.1-0.5,0.3-1,0.4-1.5c-0.2,0.3-0.5,0.5-0.7,0.8c-0.5,0.6-0.6,1.6,0,2.1c0.6,0.6,1.5,0.6,2.1,0
				c0.3-0.3,0.6-0.7,0.7-1.2c0.1-0.4,0.1-0.8-0.2-1.2c-0.2-0.3-0.4-0.5-0.7-0.6c-0.3-0.1-0.7-0.2-1-0.1c-0.4,0.1-0.6,0.4-0.9,0.7
				c-0.3,0.4-0.6,0.9-1,1.3c0.9,0.5,1.7,1,2.6,1.5c0.2-0.3,0.3-0.6,0.5-0.9c-0.1,0.1-0.2,0.2-0.2,0.3c0.3-0.3,0.5-0.6,0.9-0.9
				c-0.1,0.1-0.2,0.2-0.3,0.2c0.3-0.2,0.5-0.4,0.8-0.5c-0.6-0.8-1.2-1.6-1.8-2.4c-0.3,0.3-0.7,0.6-1,0.9c0.1-0.1,0.2-0.2,0.3-0.2
				c-0.5,0.4-1,0.7-1.6,1c0.7,0.6,1.5,1.1,2.2,1.7c0.1-0.3,0.2-0.6,0.3-0.9c-0.1,0.1-0.1,0.2-0.2,0.4c0.2-0.5,0.5-1,0.8-1.4
				c-0.1,0.1-0.2,0.2-0.2,0.3c0.5-0.7,1.1-1.2,1.7-1.8c-0.8-0.6-1.6-1.2-2.4-1.8c-0.5,0.7-1,1.4-1.5,2c0.1-0.1,0.2-0.2,0.2-0.3
				c-0.3,0.4-0.6,0.8-0.9,1.1c-0.3,0.3-0.5,0.7-0.8,1c0.1-0.1,0.2-0.2,0.3-0.2c-0.1,0.1-0.2,0.1-0.2,0.1c0.1-0.1,0.2-0.1,0.4-0.2
				c-0.1,0-0.2,0.1-0.3,0.1c0.6,0.7,1.1,1.5,1.7,2.2c0.5-1.2,1.2-2.3,2-3.4c-0.1,0.1-0.2,0.2-0.2,0.3c0.3-0.4,0.7-0.8,1-1.2
				c-0.8-0.5-1.7-1-2.5-1.5c-0.1,0.4-0.2,0.8-0.4,1.3c0.1-0.1,0.1-0.2,0.2-0.4c-0.1,0.1-0.1,0.3-0.2,0.4c-0.4,0.7-0.2,1.7,0.5,2.1
				C109.1,54.8,110.1,54.6,110.5,53.9L110.5,53.9z"/>
		</g>
	</g>
</g>
<g id="желт_угол">
	<path class="st6" d="M101.5,56.1c0.1,0.5,0.2,1.3,0,2.4c-0.2,1-0.5,1.8-1.6,3c-2.9,3.2-7.5,6.3-7.1,6.6c0.2,0.1,6-1.7,10.9-4.8
		c2.9-1.8,5.5-4.8,5.5-4.8c0.9-0.9,1.7-1.8,2.2-2.4"/>
</g>
<g id="звезды">
	<polygon class="st8" points="61,42.1 62.3,44.7 65,45.1 63.1,47.2 63.6,50.1 61.2,48.7 58.8,50.1 59.2,47.2 57.2,45.1 59.9,44.7 	
		"/>
	<polygon class="st8" points="72.8,42.5 74,45.1 76.7,45.5 74.9,47.6 75.4,50.4 73,49.1 70.6,50.5 71,47.6 69,45.5 71.6,45.1 	"/>
	<polygon class="st8" points="84.8,42.5 86,45.1 88.7,45.5 86.9,47.6 87.4,50.4 85,49.1 82.6,50.5 83,47.6 81,45.5 83.6,45.1 	"/>
	<polygon class="st8" points="96.8,42.5 98,45.1 100.7,45.5 98.9,47.6 99.4,50.4 97,49.1 94.6,50.5 95,47.6 93,45.5 95.6,45.1 	"/>
	<polygon class="st8" points="107.7,42.5 108.9,45.1 111.6,45.5 109.8,47.6 110.3,50.4 107.9,49.1 105.5,50.5 105.9,47.6 
		103.9,45.5 106.5,45.1 	"/>
</g>
<g id="Наш_рейтинг">
	<text transform="matrix(0.965 0 0 1 4.9082 48.7402)" class="st9 st10">Наш рейтинг:</text>
</g>
<g id="Читайте_отзывы">
	<text transform="matrix(0.9815 0 0 1 25.0962 71.2402)" class="st9 st11">Читайте отзывы</text>
</g>
<g id="контуры_человека">
	<g>
		<g id="XMLID_1_">
			<g>
				<path d="M111.1,21.5C111.1,21.5,111.1,21.5,111.1,21.5C111.1,21.6,111.1,21.5,111.1,21.5c-0.5,0-0.9,0-1.3-0.1
					c-0.4,0-0.9-0.1-1.3-0.1c0,0,0,0,0,0c0,0.2,0,0.4-0.1,0.6c0.4,0,0.8,0,1.3,0c0.2,0,0.4,0,0.6,0.1c0.2,0,0.4,0,0.6,0
					C110.9,21.9,111,21.7,111.1,21.5z M105.4,21.9c0.1-0.1,0.2-0.3,0.3-0.4c0.1-0.1,0.1-0.1,0.2-0.2c-0.4,0-0.9,0-1.3,0
					c-0.1,0-0.2,0-0.3,0c-0.1,0-0.2,0-0.2-0.1c0,0,0,0,0,0c0,0,0,0,0,0c0,0,0,0,0,0c-0.1-0.1-0.1-0.2-0.2-0.3c0,0,0,0,0,0
					c-0.1-0.2,0-0.4,0.1-0.6c0,0,0.1-0.1,0.1-0.1c0,0,0,0,0,0c0,0,0,0,0,0c0,0,0,0,0,0c0.2-0.2,0.3-0.4,0.5-0.5
					c0.6-0.4,1.1-0.8,1.8-0.9c0,0,0,0,0,0c1.9-0.4,3.9-0.8,5.9-0.8c0,0,0,0,0,0c0.6,0.1,1.3,0.1,1.9,0.1c1.5,0,2.9-0.2,4.2-1
					c0,0,0,0,0,0c0.7-0.5,0.7-1.3,0.7-2.1c0-0.4,0-0.7-0.1-1.1c-0.1-0.4-0.4-0.6-0.7-0.8c-1-0.5-2.1-0.6-3.2-0.8
					c-1.1-0.1-2.2-0.3-3.2-0.8c0,0,0,0,0,0c-0.1-0.1-0.3-0.2-0.4-0.3c-0.1-0.1-0.2-0.2-0.3-0.3c0,0,0,0,0,0h0c0,0,0,0,0,0
					c0,0,0,0,0,0c-0.1-0.1-0.2-0.2-0.3-0.2c-0.1,0-0.2,0-0.2,0c-0.1,0-0.1,0.1-0.2,0.1c0,0-0.1,0.1-0.1,0.1c0,0,0,0.1,0,0.1
					c0,0.1,0.1,0.1,0.1,0.2c0.1,0.1,0.1,0.2,0.2,0.3c0.7,0.5,1.6,0.9,2.5,1.1c0.9,0.2,1.8,0.1,2.7,0.3c0.7,0.2,1.6,0.4,2.1,1
					c0.4,0.4,0.6,1,0.5,1.6c0,0,0,0,0,0c-0.4,1-1.5,1.4-2.5,1.6c-1.2,0.2-2.4,0-3.6,0.1v0c-1.2,0.1-2.4,0.1-3.6,0.3
					c-1.1,0.2-2.2,0.5-3.3,0.8c0,0,0,0,0,0c-0.4,0.3-0.8,0.4-1.2,0.7c-0.6,0.4-1.2,1-1.2,1.8c0,0.1,0,0.1,0.1,0.2c0,0,0,0,0,0
					c0,0,0,0,0,0c0,0,0,0.1,0,0.1c0.1,0.5,0.6,0.7,1,0.8c0.2,0.1,0.4,0.1,0.7,0.1C104.9,21.9,105.2,22,105.4,21.9
					C105.4,21.9,105.4,21.9,105.4,21.9z M94.5,13.1c-0.4,0.6-1,1-1.5,1.4c-0.3,0.2-0.6,0.4-0.9,0.5c-0.3,0.1-0.7,0.2-1,0.3
					c0.1,0.1,0.2,0.2,0.3,0.2c0.3,0.2,0.6,0.3,0.9,0.3c0.6,0,1.2-0.4,1.6-0.8c0.1-0.3,0.2-0.6,0.4-0.9c0.1-0.1,0.2-0.3,0.3-0.5
					c0,0,0.2-0.3,0.3-0.4C94.7,13.2,94.6,13.2,94.5,13.1z M98.1,14.4c0.1-0.3,0.3-0.6,0.4-0.9c0.2-0.2,0.3-0.5,0.5-0.7
					c0.4-0.5,0.9-0.9,1.4-1.4c0,0,0,0,0,0c0-0.3,0-0.6,0.1-0.9c0,0,0,0,0,0c0-0.2,0.1-0.3,0.2-0.4c0,0,0,0,0,0
					c0.7-0.9,1.7-1.4,2.6-1.9c1.1-0.6,2.2-1.2,3.3-1.6c0.5-0.1,1.1-0.2,1.5-0.1c0.2-0.2,0.4-0.4,0.5-0.6c0.1-0.3-0.2-0.5-0.3-0.7
					c-0.2-0.2-0.5-0.5-0.5-0.9c-0.1-0.8,0.5-1.4,1-1.8c0,0,0,0,0,0c0.1,0,0.1-0.1,0.2-0.1c0.2,0,0.3,0,0.5,0c0.4,0,0.7,0,1,0
					c0,0,0,0,0,0c-0.3,0-0.6,0-0.9,0c-0.2,0-0.3,0-0.5,0c-0.1,0-0.3,0-0.4,0.1h0c-0.3,0.3-0.6,0.5-0.8,0.9c-0.2,0.4-0.2,0.9,0.1,1.3
					c0.1,0.2,0.3,0.3,0.4,0.5c0.1,0.1,0.2,0.2,0.2,0.4c0,0.1-0.1,0.3-0.1,0.4c-0.1,0.2-0.3,0.3-0.4,0.5c0.3,0.1,0.5,0.3,0.6,0.8
					c0,0.2,0,0.3,0,0.5c0.3-0.1,0.5-0.2,0.8-0.4c0.2-0.1,0.3-0.3,0.6-0.3c0.5,0,1.3,0.6,1.7,0.1c0.3-0.3,0-0.7-0.1-1
					c-0.1-0.2-0.1-0.4,0.1-0.5c0,0,0.1-0.1,0.1-0.1c0.1-0.2,0.1-0.3,0-0.4c-0.1-0.1-0.2-0.2-0.3-0.3c-0.2-0.2-0.3-0.4-0.4-0.6
					c0,0,0-0.1,0,0c0.1,0.3,0.4,0.6,0.6,0.8c0.2,0.2,0.3,0.3,0.1,0.5c-0.1,0.1-0.2,0.2-0.3,0.4c-0.1,0.2,0.1,0.4,0.2,0.6
					c0.1,0.2,0.2,0.5,0,0.7c-0.3,0.5-1,0.2-1.5,0.1c-0.2-0.1-0.4-0.1-0.6,0c-0.1,0.1-0.2,0.2-0.4,0.3c-0.2,0.2-0.5,0.3-0.8,0.4
					c-0.2,0.7-1,1.3-1.5,1.8c0,0,0,0,0,0c0.7-0.2,1.3-0.4,2-0.7c0,0,0,0,0,0c0,0,0,0,0,0c0,0,0.1,0,0.1,0c0,0,0,0,0,0s0,0,0,0
					c0.2-0.1,0.5-0.1,0.7,0c0.1,0,0.2,0,0.3,0c0.1,0,0.2,0.1,0.2,0.2c0.1,0.1,0.3,0.2,0.4,0.3c0.1,0.1,0.1,0.3,0.1,0.5
					c0,0.1,0,0.2,0.1,0.3c0,0.1,0,0.1-0.1,0.2c-0.1,0.1-0.1,0.2-0.2,0.3c0,0-0.1,0.1-0.1,0.1c0.1,0.1,0.2,0.2,0.3,0.3
					c0.1,0.1,0.3,0.2,0.4,0.3c0,0,0,0,0,0c0,0,0,0,0,0c1,0.5,2.1,0.6,3.2,0.8c1.1,0.1,2.2,0.3,3.2,0.8c0,0,0,0,0,0c0,0,0,0,0,0
					c0,0,0,0,0,0c0.3,0.1,0.5,0.4,0.7,0.7c0.2,0.3,0.2,0.8,0.2,1.1c0,0.2,0,0.3,0,0.5c0,0.6-0.1,1.3-0.7,1.7c0,0,0,0,0,0
					c-1.8,1.2-4.1,1.1-6.2,0.9c0,0,0,0,0,0c-2,0-3.9,0.4-5.8,0.8c0,0,0,0,0,0c-0.6,0.1-1.1,0.4-1.6,0.8c-0.2,0.2-0.5,0.4-0.7,0.6
					c0,0,0,0,0,0.1c0.1,0,0.1,0,0.2,0c0,0,0,0,0,0c0.1,0,0.2,0,0.2,0.1c0.1,0.1,0.2,0.1,0.3,0.2c0.1,0.1,0.2,0.2,0.2,0.3v0
					c0,0.1,0.1,0.1,0.1,0.2c0,0,0,0,0,0c0,0,0,0,0,0c-0.2,0-0.4,0.1-0.6,0.1c-0.1,0-0.3,0.1-0.4,0.1c0,0,0,0,0,0c0.1,0,0.2,0,0.3,0
					c0.1,0,0.2,0,0.3,0c0.4,0,0.8,0.1,1.2,0c0,0,0,0,0,0c0.2-0.2,0.5-0.5,0.7-0.6c0.5-0.3,1.4-0.4,1.7,0.1c0.1,0.1,0.2,0.3,0.2,0.5
					c0,0,0,0,0,0c0.4,0,0.9,0.1,1.3,0.1c0.4,0,0.9,0.1,1.3,0c0,0,0,0,0,0c0,0,0-0.1,0.1-0.1c0.3-0.4,0.9-0.9,1.5-0.9
					c0.2,0,0.5,0.1,0.6,0.3c0.1,0.1,0.1,0.2,0.1,0.4c0,0.1,0,0.2,0,0.3c0.4,0,0.8,0.1,1.2,0.1c0.1,0,0.3,0,0.4,0.1
					c0.1,0.1,0.1,0.2,0.1,0.3c0,0.1-0.2,0.2-0.3,0.2c-0.2,0-0.4,0-0.5,0c-0.4,0-0.8,0-1.2,0c0,0.1-0.1,0.2-0.1,0.3
					c-0.2,0.2-0.4,0.5-0.7,0.6c-0.5,0.4-1.1,0.5-1.7,0.1c0,0,0,0,0,0c-0.1-0.2-0.1-0.5,0-0.8c0-0.1,0-0.1,0.1-0.2
					c-0.2,0-0.4,0-0.6,0c-0.2,0-0.4-0.1-0.6-0.1c-0.4,0-0.9,0-1.3,0c-0.1,0.2-0.2,0.4-0.3,0.5c-0.4,0.5-1.1,1-1.7,1
					c-0.5,0-1.5-0.4-1.2-1c0,0,0,0,0,0c0,0,0,0,0,0c0,0,0,0,0,0v0c0-0.2,0.1-0.4,0.2-0.6h0c-0.2,0.1-0.5,0-0.8,0
					c-0.2,0-0.5,0-0.7-0.1c-0.4-0.1-0.8-0.3-1-0.7c0,0,0,0.1,0,0.1c-0.1,0.2-0.3,0.3-0.5,0.4c-0.2,0.1-0.5,0.2-0.7,0.3
					c-0.1,0-0.2,0-0.2-0.1c-0.1-0.1-0.2-0.1-0.2-0.2c0-0.1,0-0.3,0-0.4s0-0.2,0-0.4c-0.1,0-0.1,0-0.2-0.1c-0.1-0.1-0.1-0.5-0.1-0.6
					c0-0.3,0.2-0.6,0.3-0.8c0.4-0.6,0.8-1.1,1.2-1.6c0.5-0.5,0.9-1.1,1.5-1.5c0,0,0,0,0.1,0c0,0,0.1,0,0,0c-0.8,0.7-1.5,1.5-2.2,2.4
					c-0.3,0.4-0.6,0.7-0.8,1.1c-0.1,0.2-0.2,0.7-0.1,0.9c0.1,0.3,0.6,0.1,0.8,0.1c0.2,0,0.5-0.1,0.8-0.1c0.1,0,0.1-0.1,0.2-0.1
					c0,0,0,0,0,0c0-0.1,0.1-0.2,0.1-0.3c0.1-0.3,0.3-0.6,0.6-0.9c0.3-0.3,0.7-0.5,1-0.7c0.2-0.1,0.4-0.2,0.6-0.3
					c0.2-0.2,0.4-0.4,0.6-0.6c0.3-0.3,0.5-0.6,0.8-0.9c0.2-0.3,0.3-0.6,0.2-0.9c-0.1-0.2-0.3-0.4-0.4-0.5c0,0,0,0,0,0
					c-0.1-0.2-0.2-0.4-0.4-0.6c-0.2-0.2-0.3-0.3-0.5-0.5c-0.3-0.3-0.5-0.7-0.8-0.9c-0.6-0.2-1.3-0.4-1.8-0.8c-0.8-0.6-1.5-1.4-2-2.2
					c0,0,0,0,0,0c0,0,0-0.1-0.1-0.1c-0.1,0.1-0.1,0.2-0.2,0.3c0,0,0,0,0,0c-0.7,2.6,1.5,4.5,3.5,5.7c0,0,0,0.1,0,0.1l0,0
					c-0.9-0.5-1.8-1.2-2.5-2c-1.1,0.6-1.9,1.6-2.9,2.2c0,0,0,0,0,0c-0.4,0-0.7-0.2-1.1-0.3c-0.4-0.1-0.8-0.2-1.2-0.3
					c-0.8-0.3-1.6-0.5-2.5-0.7c0,0,0,0,0,0s0,0,0,0c0,0,0,0,0,0s0,0,0,0c-0.4,0.4-1,0.8-1.6,0.7c-0.3,0-0.6-0.2-0.9-0.4
					c-0.2-0.1-0.5-0.3-0.6-0.6c0,0,0,0,0,0c0,0,0,0,0,0c0.1-0.1,0.3-0.1,0.5-0.1c0.2,0,0.3-0.1,0.5-0.1c0.4-0.1,0.7-0.3,1-0.5
					c0.3-0.2,0.6-0.5,0.9-0.8c0.1-0.1,0.3-0.2,0.4-0.4c0.1-0.1,0.2-0.2,0.3-0.2c0,0,0,0,0,0c0,0,0,0,0,0c0.2,0.1,0.4,0.2,0.5,0.4
					c0,0,0,0,0,0c0,0,0,0,0,0c0,0,0,0,0,0c0,0,0,0,0,0c0,0,0,0,0,0c0.2,0.2,0.4,0.4,0.6,0.5c0.2,0.1,0.5,0.2,0.8,0.2
					C96.9,14.2,97.5,14.3,98.1,14.4z M118.3,15.4c0.2-2-2.3-2.6-3.8-2.7c-0.3,0-1.2,0-2.2-0.3c-0.6-0.2-1.2-0.5-1.2-0.5
					c-0.2-0.1-0.5-0.3-0.6-0.4c0,0,0,0,0,0c0,0,0,0,0,0c0,0,0,0,0,0c0,0,0,0,0,0c0-0.1-0.1-0.1-0.1-0.2c0,0,0,0,0,0c0,0,0,0,0,0
					c0,0.1-0.2,0.1-0.3,0.1c-0.2,0-0.3-0.1-0.5-0.2c0-0.1-0.1-0.1-0.1-0.2c0-0.1,0-0.2,0-0.3c0-0.2,0-0.4,0-0.6c0,0,0,0,0,0
					c0,0-0.1,0-0.1,0.1c0,0,0,0,0,0c0,0,0,0,0,0c0,0,0,0,0,0c-0.7,0.6-1.6,0.7-2.5,1c-0.1,0.1-0.1,0.2-0.2,0.4c0,0,0,0,0,0
					c-0.3,0.6-0.5,1.2-0.5,1.9c0,0,0,0,0,0c0,0,0,0,0,0c0,0,0,0,0,0c-0.4-0.1-0.9-0.2-1.3-0.3c0.3,0.2,0.5,0.6,0.8,0.9
					c0.2,0.2,0.4,0.3,0.5,0.5c0.2,0.2,0.3,0.4,0.4,0.6c0,0,0,0,0,0c0.3,0.3,0.6,0.7,0.4,1.2c-0.1,0.2-0.3,0.4-0.5,0.6
					c-0.2,0.3-0.4,0.5-0.7,0.8c-0.1,0.1-0.2,0.2-0.3,0.3c1.1-0.3,2.2-0.6,3.4-0.8c1.1-0.2,2.3-0.2,3.4-0.3v0c1.1,0,2.2,0.1,3.3,0
					C116.6,16.9,117.9,16.6,118.3,15.4C118.3,15.4,118.3,15.4,118.3,15.4z M115,22c0.2-0.2,0-0.3-0.2-0.4c-0.2,0-0.3,0-0.5-0.1
					c-0.3,0-0.6-0.1-0.9-0.1c0,0,0,0,0,0c0,0,0,0-0.1,0c0,0,0,0.1,0,0.1c0,0.2-0.1,0.4-0.2,0.6c0.3,0,0.6,0,0.9,0c0.2,0,0.3,0,0.5,0
					C114.7,22.1,114.9,22.1,115,22z M113.3,21.5c0.1-0.3,0.1-0.6-0.2-0.8c-0.2-0.2-0.5-0.2-0.8-0.2c-0.5,0.1-1,0.6-1.3,1
					c-0.1,0.2-0.2,0.4-0.3,0.6v0c0,0.1-0.1,0.1-0.1,0.2c-0.1,0.2-0.2,0.6,0,0.8c0.3,0.2,0.6,0.3,0.9,0.2c0.3-0.1,0.6-0.2,0.8-0.4
					c0.2-0.2,0.4-0.4,0.6-0.6c0-0.1,0-0.1,0.1-0.2c0,0,0,0,0,0C113.2,22,113.3,21.7,113.3,21.5z M111.2,10.7
					c0.1-0.1,0.2-0.2,0.2-0.4c0-0.1-0.1-0.2-0.1-0.2c0-0.2,0-0.3-0.1-0.5c-0.1-0.2-0.3-0.2-0.4-0.3c-0.1-0.1-0.1-0.2-0.3-0.2
					c-0.1,0-0.2,0-0.3,0c-0.2,0-0.5,0-0.7,0.1c0,0,0,0,0,0c0,0,0,0-0.1,0h0c0,0,0,0,0,0c-0.1,0.3-0.1,0.7,0,1.1c0.1,0,0.2,0,0.2,0
					c0.1,0,0.2-0.1,0.3-0.2c0.1,0,0.2-0.1,0.3-0.1c0.3,0,0.6,0.3,0.7,0.6c0,0.1,0.1,0.1,0.1,0.2c0,0,0,0.1,0.1,0.1c0,0,0,0,0,0
					C111.1,10.9,111.2,10.7,111.2,10.7z M111,10.8c0-0.1-0.1-0.2-0.1-0.2c-0.1-0.2-0.2-0.4-0.4-0.5c-0.2-0.2-0.5-0.1-0.7,0
					c-0.1,0.1-0.1,0.1-0.2,0.1c-0.1,0-0.1,0-0.2,0c0,0.3,0,0.6,0.1,1c0,0.1,0.1,0.1,0.1,0.2c0.1,0,0.1,0.1,0.2,0.1
					c0.1,0,0.4,0.1,0.4-0.1c0,0,0,0,0,0c0,0,0-0.1,0-0.1v0c0-0.1-0.1-0.1-0.1-0.2c0-0.1-0.1-0.1,0-0.2c0-0.1,0.1-0.1,0.1-0.1
					c0,0,0.1-0.1,0.1-0.1c0.1,0,0.1,0,0.2,0c0.1,0,0.1,0,0.2,0C110.8,10.7,110.9,10.7,111,10.8z M109.3,10.2
					C109.3,10.2,109.4,10.2,109.3,10.2c0-0.4,0-0.8,0.1-1.2c-0.7,0.3-1.4,0.5-2.1,0.7c-0.7,0.2-1.5,0.3-2,0.7c0,0-0.1,0,0,0
					c0.6-0.4,1.3-0.5,2-0.7c0,0,0.1,0,0.1-0.1c0,0,0,0,0,0c0,0,0,0,0,0v0h0c0.6-0.7,1.9-1.5,1.3-2.6s-2.2-0.3-3.1,0.1
					c-0.9,0.4-1.7,0.9-2.6,1.3c-0.8,0.4-1.7,0.9-2.3,1.6c0,0,0.1,0.1,0.1,0.1h0c0.5,0.9,1.2,1.7,2,2.2c0.5,0.3,1.1,0.6,1.7,0.7
					c0,0,0,0,0,0c0,0,0,0,0,0c0.5,0.1,1,0.2,1.4,0.4c0,0,0,0,0,0c0-0.6,0.1-1.3,0.4-1.8c0,0,0,0,0,0c0.1-0.1,0.2-0.2,0.2-0.4
					c-0.1,0-0.1,0-0.2,0.1c-0.5,0.2-1,0.5-1.5,0.6c-0.4,0.1-0.8,0-1.2-0.3c0,0,0-0.1,0,0c0,0,0,0,0,0c-0.2-0.3-0.3-0.6-0.3-0.9
					c0.1-0.4,0.4-0.8,0.6-1.1c0.5-0.7,1.1-1.4,1.8-2c0,0,0.1,0,0,0c-0.6,0.5-1.1,1.1-1.6,1.7c-0.2,0.3-0.5,0.6-0.7,1
					c-0.2,0.4-0.2,0.9,0.1,1.2c0,0,0,0,0,0c0.9,0.7,1.9-0.1,2.8-0.4C107.5,11,108.5,10.9,109.3,10.2
					C109.2,10.3,109.2,10.3,109.3,10.2C109.3,10.3,109.3,10.2,109.3,10.2C109.3,10.2,109.3,10.2,109.3,10.2z M108.2,22.3
					c0.2-0.3,0.3-0.6,0.3-0.9c0-0.3-0.2-0.6-0.5-0.8c-0.3-0.1-0.7-0.1-0.9,0c-0.3,0.1-0.6,0.3-0.8,0.5c-0.4,0.4-0.8,0.8-1,1.4
					c0,0,0,0,0,0c0,0,0,0,0,0.1c0,0,0,0,0,0c0,0,0,0,0,0c-0.2,0.5,0.3,0.8,0.7,0.9c0.4,0.1,0.8,0.1,1.1-0.1
					C107.5,23.1,107.9,22.7,108.2,22.3z M104.5,21c0.2,0,0.4-0.1,0.6-0.1c0,0,0-0.1,0-0.1c-0.1-0.1-0.2-0.1-0.3-0.1
					c-0.1,0-0.2,0-0.3,0c-0.1,0-0.2,0-0.3,0c0,0-0.3,0-0.3,0.1c0,0,0,0.1,0,0.1c0,0,0,0,0,0c0,0.1,0.1,0.1,0.1,0.2c0,0,0,0,0,0
					C104.2,21.1,104.3,21.1,104.5,21z M105,20.7c0-0.1-0.1-0.2-0.2-0.3c-0.1-0.1-0.2-0.1-0.3-0.2c-0.1,0-0.2-0.1-0.3-0.1
					c0,0,0,0,0,0c0,0-0.1,0-0.1,0c-0.1,0.2-0.3,0.4-0.2,0.6c0,0,0.1,0,0.1,0c0.1,0,0.2,0,0.4,0c0.1,0,0.3,0,0.4,0
					C104.8,20.7,104.9,20.7,105,20.7z M102.9,20.9c0-0.1,0-0.1,0-0.2c-0.4,0.1-0.8,0.1-1.2,0.2c-0.1,0-0.2,0.1-0.4,0.1
					c0,0.1,0,0.3,0,0.4c0,0,0,0.1,0,0.1c0,0,0,0,0,0c0.1,0.1,0.3,0,0.4-0.1c0.1,0,0.2-0.1,0.4-0.1C102.4,21.1,102.6,21,102.9,20.9
					C102.9,21,102.9,21,102.9,20.9C102.9,21,102.9,20.9,102.9,20.9C102.9,20.9,102.9,20.9,102.9,20.9z M102.9,21
					C102.9,21,102.9,21,102.9,21C102.9,21,102.9,21,102.9,21C102.9,21,102.9,21,102.9,21c-0.3,0.2-0.6,0.3-0.9,0.4
					c-0.1,0.1-0.3,0.1-0.4,0.2c-0.1,0-0.1,0-0.2,0c0,0-0.1,0-0.1,0c0,0,0,0,0,0.1c0,0.1,0,0.2,0.1,0.2c0,0,0,0,0.1,0c0,0,0,0,0.1,0
					c0.1,0.1,0.2,0,0.2,0c0.1-0.1,0.3-0.1,0.4-0.2c0.1-0.1,0.2-0.1,0.4-0.2c0.1-0.1,0.3-0.1,0.3-0.2C102.9,21.2,102.9,21.1,102.9,21
					z M101.5,14.2c-0.7-0.8-1.1-1.7-1.1-2.7c-0.5,0.4-0.9,0.8-1.3,1.3c-0.2,0.2-0.4,0.5-0.6,0.8c-0.2,0.3-0.3,0.6-0.4,0.9
					c0,0,0,0,0,0c0,0,0,0,0,0c-0.6-0.1-1.2-0.2-1.8-0.3c-0.2-0.1-0.5-0.1-0.7-0.2c-0.3-0.1-0.5-0.3-0.7-0.5c0,0-0.1,0.1-0.1,0.1
					c0,0.1-0.1,0.1-0.1,0.2c-0.1,0.2-0.2,0.3-0.3,0.5c-0.2,0.3-0.3,0.6-0.4,0.9c0,0,0,0,0,0c0,0,0,0,0,0c0.8,0.2,1.6,0.4,2.4,0.6
					c0.4,0.1,0.7,0.3,1.1,0.3c0.2,0,0.4,0.1,0.6,0.2c0.2,0.1,0.4,0.2,0.6,0.2c0,0,0,0,0,0C99.7,15.8,100.5,14.9,101.5,14.2z
					 M94.5,13.1C94.5,13.1,94.5,13.1,94.5,13.1c-0.1-0.1-0.1-0.1-0.2-0.2c0,0,0,0,0,0c0,0,0,0,0,0c-0.1,0-0.2,0.1-0.3,0.2
					c-0.1,0.1-0.1,0.1-0.2,0.2c-0.1,0.1-0.2,0.2-0.4,0.4c-0.2,0.2-0.5,0.4-0.8,0.6c-0.3,0.2-0.6,0.3-0.9,0.4
					c-0.2,0.1-0.3,0.1-0.5,0.1c-0.2,0-0.3,0.1-0.5,0.1c0.1,0.1,0.1,0.2,0.2,0.3c0.3-0.2,0.6-0.2,0.9-0.3c0.3-0.1,0.7-0.3,0.9-0.5
					C93.4,14.1,94.1,13.7,94.5,13.1z"/>
				<path class="st12" d="M119.1,14.9c0,0.7,0,1.6-0.7,2.1c0,0,0,0,0,0c-1.2,0.8-2.7,1-4.2,1c-0.6,0-1.3,0-1.9-0.1c0,0,0,0,0,0
					c-2,0-3.9,0.4-5.9,0.8c0,0,0,0,0,0c-0.7,0.2-1.3,0.6-1.8,0.9c-0.2,0.1-0.4,0.3-0.5,0.5c0,0,0,0,0,0c0,0,0,0,0,0c0,0,0,0,0,0
					c0,0.1-0.1,0.1-0.1,0.1c-0.1,0.2-0.2,0.4-0.1,0.6c0,0,0,0,0,0c0.1,0.1,0.1,0.2,0.2,0.3c0,0,0,0,0,0c0,0,0,0,0,0c0,0,0,0,0,0
					c0.1,0.1,0.2,0.1,0.2,0.1c0.1,0,0.2,0,0.3,0c0.4,0,0.9,0.1,1.3,0c0,0.1-0.1,0.1-0.2,0.2c-0.1,0.1-0.2,0.2-0.3,0.4c0,0,0,0,0,0
					c-0.2,0.1-0.5,0-0.7,0c-0.2,0-0.5,0-0.7-0.1c-0.4-0.1-1-0.3-1-0.8c0,0,0-0.1,0-0.1c0,0,0,0,0,0c0,0,0,0,0,0c0-0.1,0-0.2-0.1-0.2
					c0-0.8,0.6-1.4,1.2-1.8c0.4-0.3,0.8-0.4,1.2-0.7c0,0,0,0,0,0c1.1-0.3,2.2-0.6,3.3-0.8c1.2-0.2,2.4-0.2,3.6-0.3v0
					c1.2,0,2.4,0.1,3.6-0.1c1-0.1,2.1-0.5,2.5-1.6c0,0,0,0,0,0c0.1-0.6-0.1-1.2-0.5-1.6c-0.5-0.5-1.4-0.8-2.1-1
					c-0.9-0.2-1.8-0.1-2.7-0.3c-0.9-0.2-1.7-0.5-2.5-1.1c-0.1-0.1-0.2-0.2-0.2-0.3c0-0.1-0.1-0.1-0.1-0.2c0,0,0-0.1,0-0.1
					c0-0.1,0-0.1,0.1-0.1c0-0.1,0.1-0.1,0.2-0.1c0.1,0,0.1,0,0.2,0c0.1,0,0.3,0,0.3,0.2c0,0,0,0,0,0c0,0,0,0,0,0h0c0,0,0,0,0,0
					c0.1,0.1,0.2,0.2,0.3,0.3c0.1,0.1,0.3,0.2,0.4,0.3c0,0,0,0,0,0c1,0.5,2.1,0.6,3.2,0.8c1.1,0.1,2.2,0.3,3.2,0.8
					c0.3,0.1,0.6,0.4,0.7,0.8C119.1,14.1,119.1,14.5,119.1,14.9z"/>
				<path class="st12" d="M114.9,21.6c0.2,0,0.3,0.2,0.2,0.4c-0.1,0.1-0.3,0.1-0.5,0.1c-0.2,0-0.3,0-0.5,0c-0.3,0-0.6,0-0.9,0
					c0.1-0.2,0.1-0.4,0.2-0.6c0,0,0-0.1,0-0.1c0,0,0,0,0.1,0c0,0,0,0,0,0c0.3,0,0.6,0.1,0.9,0.1C114.5,21.6,114.7,21.6,114.9,21.6z"
					/>
				<path class="st13" d="M113.2,20.7c0.2,0.2,0.2,0.5,0.2,0.8c0,0.2-0.1,0.4-0.2,0.6c0,0,0,0,0,0c0,0.1,0,0.1-0.1,0.2
					c-0.1,0.2-0.3,0.4-0.6,0.6c-0.2,0.2-0.5,0.4-0.8,0.4c-0.3,0-0.6-0.1-0.9-0.2c-0.2-0.2-0.1-0.5,0-0.8c0-0.1,0.1-0.1,0.1-0.2v0
					c0.1-0.2,0.2-0.4,0.3-0.6c0.3-0.4,0.8-0.9,1.3-1C112.7,20.5,113,20.5,113.2,20.7z M112.8,21.9C112.8,21.9,112.8,21.8,112.8,21.9
					c0-0.1,0-0.1,0-0.1c0-0.1,0-0.2-0.1-0.2c-0.1-0.1-0.2-0.1-0.3,0c-0.1,0-0.2,0.1-0.3,0.2c-0.1,0.1-0.3,0.4-0.3,0.6
					c0,0.1,0.1,0.2,0.2,0.2c0.1,0,0.2,0,0.3-0.1c0.1-0.1,0.3-0.1,0.4-0.2C112.7,22.1,112.8,22,112.8,21.9
					C112.8,21.9,112.8,21.9,112.8,21.9z"/>
				<path d="M112.8,2.3c0.1,0,0.1,0.1,0.1,0.2c0,0.1-0.1,0.2-0.1,0.4c-0.1,0.2-0.2,0.4-0.5,0.5c-0.5,0.2-1.3-0.1-1.7,0.5
					c0,0-0.1,0,0,0c0.3-0.4,0.8-0.4,1.2-0.4c0.3,0,0.5-0.1,0.7-0.3c0.1-0.1,0.2-0.2,0.2-0.4C112.8,2.7,112.9,2.4,112.8,2.3
					C112.8,2.4,112.8,2.3,112.8,2.3z"/>
				<path d="M112.7,22L112.7,22C112.7,21.9,112.7,21.9,112.7,22c0-0.1,0-0.2,0-0.2c0,0,0-0.1,0-0.1c0-0.1-0.2-0.1-0.2-0.1
					c-0.2,0-0.3,0.2-0.5,0.3c-0.1,0.1-0.2,0.3-0.1,0.5c0.1,0.2,0.3,0,0.5-0.1C112.5,22.2,112.7,22.1,112.7,22z M112.8,21.8
					C112.8,21.8,112.8,21.9,112.8,21.8C112.8,21.9,112.8,21.9,112.8,21.8c0,0.2-0.1,0.2-0.1,0.3c-0.1,0.1-0.2,0.2-0.4,0.2
					c-0.1,0.1-0.2,0.1-0.3,0.1c-0.1,0-0.1-0.1-0.2-0.2c-0.1-0.2,0.1-0.4,0.3-0.6c0.1-0.1,0.2-0.2,0.3-0.2c0.1,0,0.2,0,0.3,0
					C112.8,21.6,112.8,21.7,112.8,21.8C112.8,21.8,112.8,21.8,112.8,21.8z"/>
				<path class="st14" d="M112.7,21.8c0,0,0,0.1,0,0.1c0,0,0,0,0,0.1h0c-0.1,0.1-0.2,0.2-0.3,0.3c-0.1,0.1-0.4,0.3-0.5,0.1
					c-0.1-0.2,0-0.4,0.1-0.5c0.1-0.1,0.3-0.3,0.5-0.3c0.1,0,0.2,0,0.2,0.1C112.7,21.7,112.7,21.7,112.7,21.8z"/>
				<path d="M112,1.7c0.2,0.1,0.3,0.4,0.2,0.6c-0.2,0.3-0.5,0.5-0.8,0.6c-0.8,0.2-1.7-0.1-2.3,0.5c0,0-0.1,0,0,0
					c0.5-0.4,1.1-0.4,1.7-0.4c0.4,0,0.8-0.1,1.1-0.3c0.2-0.1,0.3-0.2,0.4-0.4C112.2,2.1,112.2,1.9,112,1.7C112,1.8,112,1.7,112,1.7z
					"/>
				<path class="st12" d="M111.1,21.5C111.1,21.5,111.1,21.5,111.1,21.5c-0.1,0.2-0.2,0.4-0.2,0.6c-0.2,0-0.4,0-0.6,0
					c-0.2,0-0.4-0.1-0.6-0.1c-0.4,0-0.8,0-1.3,0c0.1-0.2,0.1-0.4,0.1-0.6c0,0,0,0,0,0c0.4,0,0.9,0.1,1.3,0.1
					C110.2,21.5,110.7,21.5,111.1,21.5C111.1,21.5,111.1,21.6,111.1,21.5z"/>
				<path class="st15" d="M110.9,10.5c0,0,0,0.1,0.1,0.2c-0.1-0.1-0.1-0.1-0.2-0.1c-0.1,0-0.1,0-0.2,0c-0.1,0-0.1,0-0.2,0
					c-0.1,0-0.1,0-0.1,0.1c0,0-0.1,0.1-0.1,0.1c0,0.1,0,0.1,0,0.2c0,0.1,0.1,0.1,0.1,0.2v0c0,0,0,0,0,0.1c0,0,0,0,0,0
					c0,0.2-0.3,0.1-0.4,0.1c-0.1,0-0.2-0.1-0.2-0.1c-0.1-0.1-0.1-0.1-0.1-0.2c0-0.3-0.1-0.6-0.1-1c0,0,0.1,0,0.2,0
					c0.1,0,0.2,0,0.2-0.1c0.2-0.2,0.4-0.2,0.7,0C110.7,10.1,110.8,10.3,110.9,10.5z"/>
				<path class="st16" d="M109.4,10.1C109.4,10.2,109.3,10.2,109.4,10.1C109.3,10.2,109.3,10.2,109.4,10.1c-0.1,0.1-0.1,0.1-0.2,0.1
					c0,0,0,0,0,0c-0.7,0.6-1.7,0.7-2.6,1c-0.9,0.3-1.9,1.1-2.8,0.4c0,0,0,0,0,0c-0.3-0.3-0.3-0.8-0.1-1.2c0.2-0.3,0.4-0.7,0.7-1
					c0.5-0.6,1-1.2,1.6-1.7c0,0,0-0.1,0,0c-0.7,0.6-1.3,1.2-1.8,2c-0.2,0.3-0.5,0.7-0.6,1.1c-0.1,0.3,0,0.7,0.3,0.9c0,0,0,0,0,0
					c0,0-0.1,0,0,0c0.3,0.3,0.8,0.4,1.2,0.3c0.5-0.1,1-0.4,1.5-0.6c0.1,0,0.1,0,0.2-0.1c-0.1,0.1-0.1,0.2-0.2,0.4c0,0,0,0,0,0
					c-0.3,0.5-0.5,1.2-0.4,1.8c0,0,0,0,0,0c-0.5-0.1-0.9-0.2-1.4-0.4c0,0,0,0,0,0c0,0,0,0,0,0c-0.6-0.2-1.2-0.4-1.7-0.7
					c-0.8-0.6-1.5-1.4-2-2.2h0c0-0.1-0.1-0.1-0.1-0.1c0.6-0.7,1.4-1.2,2.3-1.6c0.8-0.4,1.7-0.9,2.6-1.3c0.9-0.4,2.5-1.2,3.1-0.1
					S108,9,107.4,9.7h0v0c0,0,0,0,0,0c0,0,0,0,0,0c-0.1,0-0.1,0-0.1,0.1c-0.7,0.2-1.4,0.3-2,0.7c0,0,0,0.1,0,0
					c0.6-0.4,1.4-0.5,2-0.7c0.7-0.2,1.4-0.5,2.1-0.7C109.3,9.4,109.3,9.8,109.4,10.1z"/>
				<path class="st13" d="M108.4,21.3c0,0.3-0.1,0.6-0.3,0.9c-0.3,0.5-0.7,0.9-1.2,1.1c-0.4,0.2-0.7,0.2-1.1,0.1
					c-0.3-0.1-0.9-0.4-0.7-0.9c0,0,0,0,0,0c0,0,0,0,0,0c0,0,0,0,0-0.1c0,0,0,0,0,0c0.2-0.5,0.5-1,1-1.4c0.2-0.2,0.5-0.4,0.8-0.5
					c0.3-0.1,0.6-0.1,0.9,0C108.2,20.7,108.4,21,108.4,21.3z M107.5,22.1c0-0.1,0.1-0.3,0.1-0.4c0-0.1,0-0.1-0.1-0.2
					c0,0-0.1-0.1-0.1-0.1c0,0,0,0,0,0c-0.2-0.2-0.5,0.1-0.7,0.2c-0.1,0-0.1,0.1-0.2,0.2c-0.1,0-0.1,0.1-0.1,0.1c0,0.1,0,0.3,0.1,0.5
					c0,0.1,0.1,0.2,0.2,0.3c0.1,0,0.3,0,0.4,0C107.2,22.5,107.4,22.3,107.5,22.1z"/>
				<path d="M107.5,21.7c0,0.1,0,0.3-0.1,0.4c-0.1,0.2-0.3,0.4-0.6,0.5c-0.1,0-0.3,0.1-0.4,0c-0.1,0-0.2-0.2-0.2-0.3
					c0-0.1-0.1-0.3-0.1-0.5c0-0.1,0.1-0.1,0.1-0.1c0.1-0.1,0.1-0.1,0.2-0.2c0.2-0.1,0.5-0.4,0.7-0.2c0,0,0,0,0,0c0,0,0.1,0,0.1,0.1
					C107.5,21.5,107.5,21.6,107.5,21.7z M107.5,22c0-0.1,0.1-0.2,0-0.3c-0.1-0.1-0.2-0.1-0.3-0.2c0,0,0,0,0,0c-0.1,0-0.2,0-0.3,0.1
					c-0.1,0.1-0.3,0.2-0.4,0.3c-0.1,0-0.1,0.1-0.2,0.1c-0.1,0.1-0.1,0.1,0,0.2c0,0.1,0.1,0.3,0.1,0.4c0.1,0.2,0.5,0.1,0.7,0
					C107.2,22.4,107.4,22.2,107.5,22z"/>
				<path class="st14" d="M107.5,21.6c0,0.1,0,0.2,0,0.3c-0.1,0.2-0.2,0.4-0.4,0.5c-0.2,0.1-0.5,0.2-0.7,0c-0.1-0.1-0.1-0.3-0.1-0.4
					c0-0.1,0-0.1,0-0.2c0-0.1,0.1-0.1,0.2-0.1c0.1-0.1,0.2-0.2,0.4-0.3c0.1-0.1,0.2-0.1,0.3-0.1c0,0,0,0,0,0
					C107.3,21.5,107.4,21.5,107.5,21.6z"/>
				<path class="st17" d="M106.7,15.8c0.2,0.3,0.1,0.7-0.2,0.9c-0.3,0.3-0.6,0.6-0.8,0.9c-0.2,0.2-0.3,0.4-0.6,0.6
					c-0.2,0.1-0.4,0.2-0.6,0.3c-0.4,0.2-0.7,0.4-1,0.7c-0.2,0.2-0.5,0.6-0.6,0.9c0,0.1-0.1,0.2-0.1,0.3c0,0,0,0,0,0
					c0,0.1-0.1,0.1-0.2,0.1c-0.2,0.1-0.5,0.1-0.8,0.1c-0.2,0-0.7,0.2-0.8-0.1c-0.1-0.3,0-0.7,0.1-0.9c0.2-0.4,0.5-0.8,0.8-1.1
					c0.7-0.8,1.3-1.7,2.2-2.4c0,0,0-0.1,0,0c0,0,0,0-0.1,0l0,0c0,0,0,0,0-0.1c-2-1.2-4.1-3.1-3.5-5.7c0,0,0,0,0,0
					c0-0.1,0.1-0.2,0.2-0.3c0,0,0,0,0.1,0.1c0,0,0,0,0,0c0.5,0.8,1.1,1.6,2,2.2c0.5,0.4,1.2,0.6,1.8,0.8c0.4,0.2,0.5,0.7,0.8,0.9
					c0.2,0.2,0.4,0.3,0.5,0.5c0.2,0.2,0.3,0.4,0.4,0.6c0,0,0,0,0,0C106.5,15.4,106.6,15.6,106.7,15.8z"/>
				<path class="st18" d="M105,20.9c-0.2,0-0.4,0.1-0.6,0.1c-0.2,0-0.3,0.1-0.5,0.1c0,0,0,0,0,0c0-0.1-0.1-0.1-0.1-0.2c0,0,0,0,0,0
					c0,0,0-0.1,0-0.1c0,0,0.3-0.1,0.3-0.1c0.1,0,0.2,0,0.3,0c0.1,0,0.2,0,0.3,0c0.1,0,0.2,0,0.3,0.1C105,20.8,105,20.9,105,20.9z"/>
				<path class="st16" d="M104.8,20.5c0.1,0.1,0.1,0.2,0.2,0.3c-0.1,0-0.1,0-0.2,0c-0.1,0-0.3,0-0.4,0c-0.1,0-0.2,0-0.4,0
					c0,0-0.1,0-0.1,0c-0.1-0.2,0.1-0.4,0.2-0.6c0,0,0.1,0,0.1,0c0,0,0,0,0,0c0.1,0,0.2,0,0.3,0.1C104.6,20.3,104.7,20.4,104.8,20.5z
					"/>
				<path class="st16" d="M102.9,20.7c0,0.1,0,0.1,0,0.2c0,0,0,0-0.1,0c0,0,0,0,0,0c0,0,0,0,0,0c-0.2,0.1-0.5,0.2-0.8,0.3
					c-0.1,0-0.2,0.1-0.4,0.1c-0.1,0.1-0.3,0.1-0.4,0.1c0,0,0,0,0,0c0,0,0-0.1,0-0.1c0-0.1,0-0.3,0-0.4c0.1,0,0.3-0.1,0.4-0.1
					C102.1,20.8,102.5,20.8,102.9,20.7z"/>
				<path class="st18" d="M102.9,21C102.9,21,102.9,21,102.9,21c0,0.1,0,0.2-0.1,0.3c-0.1,0.1-0.2,0.2-0.3,0.2
					c-0.1,0.1-0.2,0.1-0.4,0.2c-0.1,0.1-0.2,0.1-0.4,0.2c-0.1,0-0.2,0.1-0.2,0c0,0,0,0-0.1,0c0,0,0,0-0.1,0
					c-0.1-0.1-0.1-0.1-0.1-0.2c0,0,0,0,0-0.1c0,0,0.1,0,0.1,0c0.1,0,0.1,0,0.2,0c0.1,0,0.3-0.1,0.4-0.2
					C102.3,21.2,102.6,21.1,102.9,21C102.9,21,102.9,21,102.9,21C102.9,21,102.9,21,102.9,21z"/>
				<path class="st17" d="M100.4,11.5c0,1,0.4,1.9,1.1,2.7c-1.1,0.6-1.9,1.6-2.9,2.2c0,0,0,0,0,0c-0.2,0-0.4-0.1-0.6-0.2
					c-0.2-0.1-0.4-0.1-0.6-0.2c-0.4-0.1-0.8-0.2-1.1-0.3c-0.8-0.2-1.6-0.4-2.4-0.6c0,0,0,0,0,0c0,0,0,0,0,0c0.1-0.3,0.2-0.6,0.4-0.9
					c0.1-0.2,0.2-0.3,0.3-0.5c0.1-0.1,0.1-0.1,0.1-0.2c0,0,0.1-0.1,0.1-0.1c0.2,0.2,0.5,0.4,0.7,0.5c0.2,0.1,0.5,0.2,0.7,0.2
					c0.6,0.1,1.2,0.2,1.8,0.3c0,0,0,0,0,0c0,0,0,0,0,0c0.1-0.3,0.2-0.6,0.4-0.9c0.2-0.3,0.4-0.5,0.6-0.8
					C99.5,12.3,99.9,11.9,100.4,11.5z"/>
				<path class="st19" d="M94.5,13.1c0.1,0.1,0.2,0.1,0.3,0.2c-0.1,0.1-0.3,0.4-0.3,0.4c-0.1,0.2-0.2,0.3-0.3,0.5
					c-0.2,0.3-0.3,0.6-0.4,0.9c-0.4,0.4-1,0.8-1.6,0.8c-0.3,0-0.6-0.2-0.9-0.3c-0.1-0.1-0.2-0.1-0.3-0.2c0.3-0.2,0.7-0.2,1-0.3
					c0.3-0.1,0.6-0.3,0.9-0.5C93.6,14.1,94.1,13.7,94.5,13.1z"/>
				<path class="st18" d="M94.5,13.1C94.5,13.1,94.5,13.1,94.5,13.1c-0.4,0.6-1,1-1.6,1.4c-0.3,0.2-0.6,0.4-0.9,0.5
					c-0.3,0.1-0.6,0.1-0.9,0.3c-0.1-0.1-0.2-0.2-0.2-0.3c0.2-0.1,0.3-0.1,0.5-0.1c0.2,0,0.3-0.1,0.5-0.1c0.3-0.1,0.6-0.3,0.9-0.4
					c0.3-0.2,0.5-0.4,0.8-0.6c0.1-0.1,0.2-0.2,0.4-0.4c0.1-0.1,0.1-0.1,0.2-0.2c0.1-0.1,0.2-0.1,0.3-0.2c0,0,0,0,0,0c0,0,0,0,0,0
					C94.4,13,94.4,13,94.5,13.1z"/>
			</g>
			<g>
				<path class="st20" d="M110.3,11.3C110.3,11.3,110.3,11.3,110.3,11.3C110.3,11.3,110.3,11.3,110.3,11.3c0.1,0,0.1,0.1,0.2,0.1
					c0,0,0,0,0,0c0,0,0,0,0,0c0,0,0,0,0,0c0,0,0,0,0,0c0.2,0.1,0.4,0.2,0.6,0.4c0,0,0.6,0.3,1.2,0.5c1,0.3,1.9,0.3,2.2,0.3
					c1.5,0.1,4,0.7,3.8,2.7c0,0,0,0,0,0c-0.4,1.2-1.7,1.5-2.8,1.6c-1.1,0.1-2.2,0-3.3,0v0c-1.2,0.1-2.3,0.1-3.4,0.3
					c-1.1,0.2-2.2,0.5-3.4,0.8c0.1-0.1,0.2-0.2,0.3-0.3c0.2-0.3,0.4-0.5,0.7-0.8c0.2-0.2,0.4-0.4,0.5-0.6c0.2-0.5-0.1-0.9-0.4-1.2
					c0,0,0,0,0,0c-0.1-0.2-0.2-0.4-0.4-0.6c-0.2-0.2-0.4-0.4-0.5-0.5c-0.3-0.3-0.5-0.6-0.8-0.9c0.4,0.1,0.9,0.2,1.3,0.3c0,0,0,0,0,0
					c0,0,0,0,0,0c0,0,0,0,0,0c0-0.7,0.1-1.3,0.5-1.9c0,0,0,0,0,0c0.1-0.1,0.2-0.2,0.2-0.4c0.9-0.3,1.8-0.4,2.5-1c0,0,0,0,0,0
					c0,0,0,0,0,0c0,0,0,0,0,0c0,0,0-0.1,0.1-0.1c0,0,0,0,0,0c0,0.2,0,0.4,0,0.6c0,0.1,0,0.2,0,0.3c0,0.1,0,0.1,0.1,0.2
					c0.1,0.1,0.3,0.2,0.5,0.2C110.1,11.5,110.3,11.5,110.3,11.3z"/>
			</g>
		</g>
	</g>
	<path class="st21" d="M112.9,12.6"/>
	<g>
		<g>
			<path d="M111.1,11.9c0.1,1.7,0.1,3.5,0,5.2c0,0,0.1,0,0.1,0C111.3,15.4,111.2,13.7,111.1,11.9C111.2,11.9,111.1,11.9,111.1,11.9
				L111.1,11.9z"/>
		</g>
	</g>
	<g>
		<g>
			<path d="M112.7,12.6c0.1,0.7,0,1.5,0,2.2c0,0.7-0.1,1.5-0.1,2.2c0,0,0.1,0,0.1,0c0-0.7,0.1-1.5,0.1-2.2
				C112.8,14,112.9,13.3,112.7,12.6C112.8,12.5,112.7,12.5,112.7,12.6L112.7,12.6z"/>
		</g>
	</g>
	<g>
		<g>
			<path d="M114.2,12.8c-0.1,1.4-0.2,2.8-0.3,4.3c0,0,0.1,0,0.1,0C114.1,15.6,114.2,14.2,114.2,12.8
				C114.3,12.7,114.2,12.7,114.2,12.8L114.2,12.8z"/>
		</g>
	</g>
	<g>
		<g>
			<path d="M115.9,12.9c-0.1,1.4-0.1,2.7-0.1,4.1c0,0,0.1,0,0.1,0C115.9,15.6,115.9,14.3,115.9,12.9
				C115.9,12.9,115.9,12.9,115.9,12.9L115.9,12.9z"/>
		</g>
	</g>
	<g>
		<g>
			<path d="M117.3,13.5c0,1,0,2,0.1,3c0,0,0.1,0,0.1,0C117.4,15.5,117.4,14.5,117.3,13.5C117.4,13.4,117.3,13.4,117.3,13.5
				L117.3,13.5z"/>
		</g>
	</g>
	<g>
		<g>
			<path d="M111.2,16.2c2.2-0.2,4.4,0,6.6,0.1c0,0,0-0.1,0-0.1C115.6,16.1,113.4,15.9,111.2,16.2C111.1,16.1,111.1,16.2,111.2,16.2
				L111.2,16.2z"/>
		</g>
	</g>
	<g>
		<g>
			<path d="M111.2,15.2c1.2-0.1,2.4-0.1,3.6-0.1c1.2,0,2.4-0.1,3.6,0c0,0,0.1-0.1,0-0.1c-1.1-0.2-2.3-0.1-3.5,0
				C113.7,15.1,112.4,15.1,111.2,15.2C111.1,15.2,111.1,15.2,111.2,15.2L111.2,15.2z"/>
		</g>
	</g>
	<g>
		<g>
			<path d="M111.2,14.2c1.2-0.1,2.3-0.1,3.5-0.1c0.6,0,1.1,0,1.7,0c0.6,0,1.1,0.2,1.7,0.1c0,0,0-0.1,0-0.1c-0.6,0-1.1-0.1-1.7-0.1
				c-0.6,0-1.1,0-1.7,0C113.5,14.1,112.4,14.1,111.2,14.2C111.2,14.1,111.2,14.2,111.2,14.2L111.2,14.2z"/>
		</g>
	</g>
	<g>
		<g>
			<path d="M111.2,13.2c1.9,0,3.9,0.1,5.8,0.1c0,0,0-0.1,0-0.1C115.1,13.2,113.1,13.1,111.2,13.2C111.1,13.1,111.1,13.2,111.2,13.2
				L111.2,13.2z"/>
		</g>
	</g>
	<g>
		<g>
			<path d="M103.8,11.7C103.8,11.7,103.8,11.7,103.8,11.7C103.8,11.7,103.8,11.7,103.8,11.7C103.8,11.7,103.8,11.7,103.8,11.7
				C103.8,11.7,103.9,11.7,103.8,11.7C103.8,11.7,103.8,11.6,103.8,11.7C103.8,11.6,103.8,11.6,103.8,11.7
				C103.8,11.6,103.8,11.7,103.8,11.7C103.8,11.7,103.8,11.7,103.8,11.7C103.8,11.6,103.8,11.6,103.8,11.7
				C103.8,11.6,103.8,11.6,103.8,11.7C103.8,11.6,103.8,11.7,103.8,11.7C103.8,11.7,103.8,11.7,103.8,11.7
				C103.8,11.7,103.8,11.6,103.8,11.7C103.8,11.6,103.8,11.6,103.8,11.7C103.8,11.7,103.8,11.7,103.8,11.7
				C103.8,11.7,103.8,11.7,103.8,11.7C103.8,11.7,103.8,11.6,103.8,11.7C103.8,11.6,103.8,11.6,103.8,11.7
				C103.8,11.6,103.8,11.7,103.8,11.7C103.8,11.7,103.8,11.7,103.8,11.7c0-0.1,0-0.1,0-0.1c0,0,0,0,0,0
				C103.8,11.6,103.8,11.6,103.8,11.7C103.8,11.7,103.8,11.7,103.8,11.7C103.8,11.6,103.8,11.6,103.8,11.7
				C103.8,11.6,103.8,11.6,103.8,11.7C103.8,11.7,103.8,11.7,103.8,11.7C103.8,11.7,103.9,11.7,103.8,11.7
				C103.8,11.7,103.8,11.6,103.8,11.7C103.8,11.6,103.8,11.6,103.8,11.7C103.8,11.7,103.8,11.7,103.8,11.7
				C103.8,11.7,103.9,11.7,103.8,11.7C103.8,11.7,103.8,11.6,103.8,11.7C103.8,11.6,103.8,11.6,103.8,11.7
				C103.8,11.6,103.8,11.7,103.8,11.7C103.8,11.7,103.8,11.7,103.8,11.7C103.8,11.6,103.8,11.6,103.8,11.7
				C103.8,11.6,103.8,11.6,103.8,11.7C103.8,11.7,103.8,11.7,103.8,11.7C103.8,11.7,103.8,11.7,103.8,11.7
				C103.8,11.7,103.8,11.7,103.8,11.7C103.8,11.6,103.8,11.7,103.8,11.7C103.8,11.7,103.8,11.7,103.8,11.7
				C103.8,11.7,103.8,11.7,103.8,11.7L103.8,11.7z"/>
		</g>
	</g>
</g>
</svg>
