<?xml version="1.0" encoding="utf-8"?>
<!-- Generator: Adobe Illustrator 25.0.0, SVG Export Plug-In . SVG Version: 6.00 Build 0)  -->
<svg version="1.1" id="Слой_1" xmlns="http://www.w3.org/2000/svg" xmlns:xlink="http://www.w3.org/1999/xlink" x="0px" y="0px"
	 viewBox="0 0 120 72" style="enable-background:new 0 0 120 72;" xml:space="preserve">
<style type="text/css">
	.st0{display:none;}
	.st1{fill:#FF0000;}
	.st2{font-family:'YandexSansDisplay-Regular';}
	.st3{font-size:27.2866px;}
	.st4{fill:#F48F18;}
	.st5{font-size:14.2919px;}
	.st6{fill:none;stroke:#F48F18;stroke-miterlimit:10;}
	.st7{fill:#FFFFFF;}
	.st8{fill:#F48F18;stroke:#F48F18;stroke-miterlimit:10;}
	.st9{font-family:'YandexSansDisplay-Bold';}
	.st10{font-size:8px;}
	.st11{font-size:9.2px;}
</style>
<g id="Слой_1_1_" class="st0">
	
		<image style="display:inline;overflow:visible;enable-background:new    ;" width="300" height="185" xlink:href="4D7DF326.jpeg"  transform="matrix(0.3667 0 0 0.3667 5 2)">
	</image>
</g>
<g id="Яндекс">
	<text transform="matrix(0.6682 0 0 1 30.4316 19.1704)" class="st1 st2 st3">Я</text>
	<text transform="matrix(0.6682 0 0 1 41.5371 19.1704)" class="st2 st3">ндекс</text>
</g>
<g id="маркет">
	<text transform="matrix(0.916 0 0 1 39.2026 31.3936)" class="st4 st2 st5">маркет</text>
</g>
<g id="желт_прям">
	<g>
		<path class="st6" d="M118.7,53c0,2.2-1.8,4-4,4H5.3c-2.2,0-4-1.8-4-4V40.5c0-2.2,1.8-4,4-4h109.4c2.2,0,4,1.8,4,4V53z"/>
	</g>
</g>
<g id="белая_закрашенная_часть">
	<g>
		<g>
			<path class="st7" d="M114,68c1.9,0,1.9-3,0-3S112,68,114,68L114,68z"/>
		</g>
	</g>
	<g>
		<g>
			<path class="st7" d="M106,54.6c-0.4-1.1-0.9-2.2-1.6-3.2c-0.2-0.3-0.5-0.6-0.9-0.7c-0.4-0.1-0.8,0-1.2,0.2
				c-0.3,0.2-0.6,0.5-0.7,0.9c-0.1,0.4-0.1,0.8,0.2,1.2c0.5,0.7,0.9,1.4,1.2,2.2c-0.1-0.1-0.1-0.2-0.2-0.4c0.1,0.2,0.2,0.4,0.2,0.6
				c0.1,0.4,0.3,0.7,0.7,0.9c0.3,0.2,0.8,0.3,1.2,0.2s0.7-0.3,0.9-0.7C106,55.4,106.1,54.9,106,54.6L106,54.6z"/>
		</g>
	</g>
	<g>
		<g>
			<path class="st7" d="M105.4,55c0.1-1.1,0.1-2.2-0.1-3.3c-0.1-0.2-0.1-0.4-0.2-0.6c-0.1-0.2-0.2-0.4-0.2-0.6
				c-0.1-0.2,0.1,0.2,0-0.1c-0.1-0.2-0.2-0.5-0.2-0.7c0,0.2,0-0.1,0-0.2c0,0,0-0.4,0-0.2c-1,0-1.9,0-2.9,0c0.4,1.5,0.4,3.1,0.8,4.6
				c0.2,0.7,0.5,1.4,0.8,2.1c0,0.1,0.1,0.6,0.1,0.3c0,0.1,0,0.3,0,0.4c0-0.3,0,0.1,0,0.1c0.1-0.2,0.1-0.2,0,0c0.1-0.1,0.1-0.1,0,0
				c0.2-0.1,0.4-0.3,0.7-0.4c0,0-0.1,0-0.1,0c0.3,0,0.5,0,0.8,0c0,0-0.1,0-0.1,0c0.3,0.2,0.6,0.5,0.9,0.7c0.1,0.2,0.1,0.2,0,0
				c0,0.1,0,0.1,0-0.1c0-0.2,0-0.3,0-0.5c0-0.4,0-0.5,0.2-1c-0.9,0.1-1.8,0.2-2.7,0.4c0-0.1,0-0.1,0,0.1c0,0.1,0.1,0.2,0.1,0.3
				c0.1,0.2,0.1,0.4,0.2,0.7c0-0.2,0,0.4,0,0.4c0,0.2,0,0.5,0,0.7c1-0.1,2-0.3,2.9-0.4c-0.1-0.6-0.2-1.1-0.2-1.5
				c-0.1-0.8-0.5-1.4-1.3-1.5c-0.8-0.1-1.4,0.4-1.7,1.1c-0.2,0.7-0.4,1.3-0.5,2c-0.1,0.8,0.2,1.7,1.1,1.8c0.8,0.2,1.6-0.2,1.8-1
				c0.2-0.7,0.4-1.5,0.5-2.2c-1,0-1.9,0-2.9,0c0,0,0.1,0.3,0,0.1c0,0.1,0,0.3,0,0.4c0,0.2,0,0.5,0,0.8c0.9-0.2,1.9-0.5,2.8-0.8
				c-0.1-0.2-0.2-0.4-0.2-0.5c-0.1-0.2-0.2-0.5-0.2-0.7c-0.4-1.6-3-1.3-2.9,0.4c0,0.8,0,1.6-0.1,2.4c1-0.1,2-0.3,2.9-0.4
				c-0.1-0.4-0.2-0.8-0.3-1.2c0-0.2-0.1-0.3-0.1-0.5c0-0.1,0-0.2-0.1-0.3c0,0.1,0,0.1,0-0.1c-0.5,0.5-1,1-1.5,1.5
				c-0.4,0-0.7-0.2-0.8-0.5c0-0.1,0-0.1,0,0.1c0,0.1,0.1,0.2,0.1,0.3c0.1,0.4,0.3,0.7,0.6,1c0.9,0.8,2.1,0.4,2.5-0.7
				c0.4-1,0.4-2.1,0.1-3.2c-0.5,0.6-1,1.3-1.4,1.9c-0.1,0-0.3-0.1,0,0c0.7,0.4,1.7,0.2,2.1-0.5c0.4-0.8,0.2-1.6-0.5-2
				c-0.4-0.3-0.9-0.4-1.5-0.5c-1-0.1-1.7,1-1.4,1.9c0,0,0.1,0.5,0.1,0.2c0,0.2,0,0.4,0,0.6c0,0.1,0,0.1,0,0c0,0.1,0,0.2-0.1,0.2
				c0,0.2-0.1,0.4-0.2,0.5c0.8-0.2,1.7-0.4,2.5-0.7c0,0,0.1,0.2,0.1,0.2c0,0-0.1-0.2-0.1-0.3c-0.1-0.3-0.2-0.5-0.3-0.8
				c-0.4-0.6-1-1-1.7-1c-0.7,0-1.6,0.7-1.5,1.5c0.1,1,0.3,2,0.6,2.9c0.2,0.7,0.9,1.2,1.7,1.1c0.8-0.1,1.2-0.7,1.3-1.5
				c0.1-0.8,0.1-1.6,0.1-2.4c-1,0.1-2,0.3-2.9,0.4c0.2,0.7,0.4,1.3,0.7,1.9c0.3,0.6,1.1,0.9,1.7,0.7c0.7-0.2,1-0.8,1.1-1.5
				c0.1-0.7,0-1.4-0.1-2.1c-0.3-1.5-2.6-1.4-2.9,0c-0.2,0.7-0.4,1.5-0.5,2.2c1,0.3,1.9,0.5,2.9,0.8c0.1-0.7,0.3-1.3,0.5-2
				c-1-0.1-2-0.3-2.9-0.4c0.1,0.8,0.2,1.5,0.4,2.3c0.2,0.7,0.9,1.2,1.7,1.1c0.8-0.1,1.2-0.7,1.3-1.5c0.1-1.3-0.2-2.5-0.7-3.7
				c-0.2-0.5-1-0.8-1.5-0.7c-0.6,0.1-1.1,0.5-1.2,1.1c-0.2,0.7-0.3,1.5-0.2,2.2c0.1,0.9,0.2,2,1.1,2.4c1.8,0.8,2.9-1.5,2.8-3
				c-0.1-1.3-0.8-2.5-1.1-3.8c-0.3-1.3-0.3-2.7-0.7-4c-0.2-0.6-0.8-1.1-1.4-1.1c-0.6,0-1.3,0.4-1.4,1.1c-0.1,0.7-0.1,1.3,0,2.1
				c0.1,0.2,0.1,0.5,0.2,0.7c0.1,0.2,0.2,0.4,0.2,0.6c0,0,0.1,0.3,0.1,0.2c0.4,1,0.3,1.9,0.2,3c-0.1,0.8,0.7,1.5,1.5,1.5
				C104.8,56.5,105.4,55.9,105.4,55L105.4,55z"/>
		</g>
	</g>
	<g>
		<g>
			<path class="st7" d="M110.3,54.8c0.3-0.6,0.6-1.3,0.7-2c0.1-0.3,0.1-0.6-0.1-1c-0.1-0.3-0.3-0.6-0.6-0.7
				c-0.6-0.3-1.3-0.3-1.8,0.2c-1.3,1.5-2.5,3.1-3.3,4.9c-0.3,0.6-0.3,1.2,0.1,1.7c0.2,0.2,0.3,0.4,0.6,0.5c0.3,0.1,0.6,0.1,1,0.1
				c0.6-0.1,1.2-0.5,1.5-1c0.3-0.4,0.7-0.8,1-1.3c0.7-0.9,1.4-1.8,2.1-2.8c0.2-0.3,0.3-0.8,0.2-1.2c-0.1-0.3-0.3-0.6-0.5-0.8
				c-0.6-0.5-1.4-0.4-2,0.1c-1.4,1.3-2.8,2.8-3.2,4.8c-0.1,0.6,0,1.2,0.5,1.6c0.5,0.4,1.1,0.4,1.7,0.1c1.1-0.6,2-1.3,2.9-2.1
				c0.5-0.5,0.6-1.4,0.1-2c-0.5-0.6-1.2-0.7-1.9-0.4c-1.2,0.6-2.2,1.6-2.8,2.8c-0.3,0.7-0.2,1.7,0.5,2c0.3,0.2,0.8,0.3,1.2,0.2
				c0.4-0.1,0.7-0.4,0.9-0.7c0.3-0.4,0.6-0.8,1-1.3c-0.9-0.4-1.8-0.8-2.7-1.2c0,0.1,0,0.1-0.1,0.2c0.1-0.1,0.1-0.2,0.2-0.4
				c0,0.1-0.1,0.1-0.1,0.2c0.1-0.1,0.2-0.2,0.2-0.3c0,0-0.1,0.1-0.1,0.1c0.7,0.7,1.4,1.4,2.1,2.1c0.2-0.3,0.5-0.5,0.7-0.8
				c0.3-0.4,0.6-1,0.4-1.5c0-0.1,0-0.2-0.1-0.2c0,0.1,0,0.3,0.1,0.4c0-0.1,0-0.2,0-0.3c0,0.1,0,0.3-0.1,0.4c0.1-0.4,0.3-0.8,0.4-1.3
				c0.1-0.4,0.1-0.8,0-1.2c-0.1-0.4-0.3-0.7-0.6-1c-0.2-0.3-0.7-0.4-1.1-0.4c-0.4,0-0.8,0.2-1.1,0.4c-0.3,0.3-0.5,0.7-0.4,1.1
				c0,0.4,0.2,0.7,0.4,1.1c0,0,0,0,0,0c-0.1-0.1-0.2-0.2-0.2-0.3c0,0,0.1,0.1,0.1,0.2c-0.1-0.1-0.1-0.2-0.2-0.4c0,0.1,0,0.1,0.1,0.2
				c0-0.1,0-0.3-0.1-0.4c0,0.1,0,0.3,0,0.4c0-0.1,0-0.3,0.1-0.4c-0.1,0.3-0.2,0.6-0.3,1c-0.2,0.5-0.2,1.2,0,1.7
				c0.1-0.5,0.3-1,0.4-1.5c-0.2,0.3-0.5,0.5-0.7,0.8c-0.5,0.6-0.6,1.6,0,2.1c0.6,0.6,1.5,0.6,2.1,0c0.3-0.3,0.6-0.7,0.7-1.2
				c0.1-0.4,0.1-0.8-0.2-1.2c-0.2-0.3-0.4-0.5-0.7-0.6c-0.3-0.1-0.7-0.2-1-0.1c-0.4,0.1-0.7,0.4-0.9,0.7c-0.3,0.4-0.6,0.8-1,1.3
				c0.9,0.5,1.7,1,2.6,1.5c0.2-0.3,0.3-0.6,0.5-0.9c-0.1,0.1-0.2,0.2-0.2,0.3c0.2-0.3,0.5-0.6,0.9-0.9c-0.1,0.1-0.2,0.2-0.3,0.2
				c0.3-0.2,0.5-0.4,0.8-0.5c-0.6-0.8-1.2-1.6-1.8-2.4c-0.3,0.3-0.7,0.6-1,0.9c0.1-0.1,0.2-0.2,0.3-0.2c-0.5,0.4-1,0.7-1.6,1
				c0.7,0.6,1.5,1.1,2.2,1.7c0.1-0.3,0.2-0.6,0.3-0.9c-0.1,0.1-0.1,0.2-0.2,0.4c0.2-0.5,0.5-1,0.8-1.4c-0.1,0.1-0.2,0.2-0.2,0.3
				c0.5-0.7,1.1-1.2,1.7-1.8c-0.8-0.6-1.6-1.2-2.4-1.8c-0.5,0.7-1,1.4-1.5,2c0.1-0.1,0.2-0.2,0.2-0.3c-0.3,0.4-0.6,0.8-0.9,1.1
				c-0.3,0.3-0.5,0.7-0.8,1c0.1-0.1,0.2-0.2,0.3-0.2c-0.1,0.1-0.2,0.1-0.2,0.2c0.1,0,0.2-0.1,0.4-0.2c-0.1,0-0.2,0.1-0.3,0.1
				c0.6,0.7,1.1,1.5,1.7,2.2c0.6-1.2,1.2-2.3,2-3.4c-0.1,0.1-0.2,0.2-0.2,0.3c0.3-0.4,0.7-0.8,1.1-1.2c-0.8-0.5-1.7-1-2.5-1.5
				c-0.1,0.4-0.2,0.8-0.3,1.2c0.1-0.1,0.1-0.2,0.2-0.4c-0.1,0.2-0.1,0.3-0.2,0.4c-0.4,0.7-0.2,1.7,0.5,2
				C108.9,55.7,109.9,55.6,110.3,54.8L110.3,54.8z"/>
		</g>
	</g>
</g>
<g id="желт_угол">
	<path class="st6" d="M101.2,57c0.1,0.5,0.2,1.3,0,2.4c-0.2,1-0.6,1.8-1.6,3c-2.9,3.2-7.5,6.3-7.1,6.6c0.2,0.1,6-1.8,10.9-4.8
		c2.9-1.8,5.4-4.8,5.4-4.8c0.9-0.9,1.7-1.8,2.2-2.4"/>
</g>
<g id="звезды">
	<polygon class="st8" points="60.8,43 62.1,45.7 64.8,46.1 62.9,48.1 63.4,51 61,49.7 58.6,51 59,48.1 57,46.1 59.7,45.7 	"/>
	<polygon class="st8" points="72.6,43.4 73.8,46 76.5,46.5 74.7,48.5 75.2,51.4 72.8,50 70.4,51.4 70.8,48.5 68.8,46.5 71.4,46.1 	
		"/>
	<polygon class="st8" points="84.6,43.4 85.8,46 88.5,46.5 86.7,48.5 87.2,51.4 84.8,50 82.4,51.4 82.8,48.5 80.8,46.5 83.4,46.1 	
		"/>
	<polygon class="st8" points="96.6,43.4 97.8,46 100.5,46.5 98.7,48.5 99.2,51.4 96.8,50 94.4,51.4 94.8,48.5 92.8,46.5 95.4,46.1 	
		"/>
	<polygon class="st8" points="107.5,43.4 108.7,46 111.4,46.5 109.6,48.5 110.1,51.4 107.7,50 105.3,51.4 105.7,48.5 103.7,46.5 
		106.3,46.1 	"/>
</g>
<g id="Наш_рейтинг">
	<text transform="matrix(0.965 0 0 1 4.7032 48.6939)" class="st9 st10">Наш рейтинг:</text>
</g>
<g id="Читайте_отзывы">
	<text transform="matrix(0.916 0 0 1 25.0967 70.8945)" class="st9 st11">Читайте отзывы</text>
</g>
<g id="человечек">
	<g>
		
			<image style="overflow:visible;enable-background:new    ;" width="73" height="70" xlink:href="4D7DF32A.jpeg"  transform="matrix(0.3793 0 0 -0.406 90.8831 26.4215)">
		</image>
	</g>
</g>
</svg>
